<svg id="Layer_1" data-name="Layer 1" xmlns="http://www.w3.org/2000/svg" viewBox="0 0 480 480"><defs><style>.cls-1{fill:#673ab7;}.cls-2{fill:#fff;}</style></defs><path class="cls-1" d="M480,413.33A66.66,66.66,0,0,1,413.33,480H66.67A66.66,66.66,0,0,1,0,413.33V66.67A66.66,66.66,0,0,1,66.67,0H413.33A66.66,66.66,0,0,1,480,66.67Z"/><path class="cls-2" d="M360.4,261.33c-8.67-12-21.2-20.26-37.33-24.66,0,0,13.6-4.94,25.86-23.34,7.34-11.73,11.07-25.86,11.07-42.4,0-28.66-10.4-50.66-31.2-65.73S284.53,80,244.67,80H120V400H259.07c37.73-.27,66.13-8.4,85.46-24,19.2-15.87,28.8-39.33,28.8-70.67C373.33,288,369.07,273.33,360.4,261.33ZM200,133.33h56.67a36.67,36.67,0,0,1,0,73.34H200Zm66.67,213.34H200v-80h66.67a40,40,0,0,1,0,80Z"/></svg>